<?xml version="1.0" encoding="utf-8"?>
<!-- Generator: Adobe Illustrator 26.2.1, SVG Export Plug-In . SVG Version: 6.00 Build 0)  -->
<svg version="1.1" id="Layer_1" xmlns="http://www.w3.org/2000/svg" xmlns:xlink="http://www.w3.org/1999/xlink" x="0px" y="0px"
	 viewBox="0 0 203 48" style="enable-background:new 0 0 203 48;" xml:space="preserve">
<path d="M5.62,0.67h7.34l5.62,46.67h-5.42l-0.99-9.27v0.13H6.01l-0.99,9.13H0L5.62,0.67z M11.53,31.87L9.11,8.8h-0.1L6.65,31.87
	H11.53z M21.19,0.67h5.42v40h8.92v6.67H21.19V0.67z M38.14,0.67h14.78v6.67h-9.36v12.33H51v6.67h-7.44v14.33h9.36v6.67H38.14V0.67z
	 M55.68,36.53V11.47C55.68,4.27,58.44,0,63.66,0c5.22,0,7.98,4.27,7.98,11.47v4.93h-5.12V11c0-3.07-1.08-4.33-2.71-4.33
	c-1.63,0-2.71,1.27-2.71,4.33v26.07c0,3.07,1.08,4.27,2.71,4.27c1.63,0,2.71-1.2,2.71-4.27v-7.13h5.12v6.6
	c0,7.2-2.76,11.47-7.98,11.47C58.44,48,55.68,43.73,55.68,36.53z M82.78,0.67h8.28c5.42,0,8.08,4.07,8.08,11.53v23.6
	c0,7.47-2.66,11.53-8.08,11.53h-8.28V0.67z M90.96,40.67c1.72,0,2.76-1.2,2.76-4.53V11.87c0-3.33-1.03-4.53-2.76-4.53H88.2v33.33
	H90.96z M106.87,0.67h7.34l5.62,46.67h-5.42l-0.99-9.27v0.13h-6.16l-0.99,9.13h-5.03L106.87,0.67z M112.78,31.87L110.37,8.8h-0.1
	l-2.36,23.07H112.78z M122.44,0.67h6.8l5.27,27.93h0.1V0.67h4.83v46.67h-5.57l-6.5-34.07h-0.1v34.07h-4.83V0.67z M143.48,0.67h5.42
	v46.67h-5.42V0.67z M152.94,0.67h14.78v6.67h-9.36v12.33h7.44v6.67h-7.44v14.33h9.36v6.67h-14.78V0.67z M170.83,0.67h5.42v40h8.92
	v6.67h-14.34V0.67z M186.84,36.27V33.6h5.12v3.2c0,3.33,1.08,4.53,2.81,4.53c1.72,0,2.81-1.2,2.81-4.67c0-3.87-1.08-6.33-4.63-10.53
	c-4.53-5.4-6.01-9.2-6.01-14.53c0-7.33,2.81-11.6,8.08-11.6c5.27,0,7.88,4.27,7.88,11.73v1.93h-5.12v-2.4c0-3.33-0.99-4.6-2.71-4.6
	s-2.71,1.27-2.71,4.47c0,3.4,1.13,5.87,4.68,10.07c4.53,5.4,5.96,9.13,5.96,14.93c0,7.6-2.86,11.87-8.18,11.87
	S186.84,43.73,186.84,36.27z"/>
</svg>
