<?xml version="1.0" encoding="utf-8"?>
<!-- Generator: Adobe Illustrator 26.2.1, SVG Export Plug-In . SVG Version: 6.00 Build 0)  -->
<svg version="1.1" id="Layer_1" xmlns="http://www.w3.org/2000/svg" xmlns:xlink="http://www.w3.org/1999/xlink" x="0px" y="0px"
	 viewBox="0 0 1920 1080" style="enable-background:new 0 0 1920 1080;" xml:space="preserve">
<style type="text/css">
	.st0{<fill: rgb(0,0,0)></fill:>;}
</style>
<g>
	<circle cx="708.5" cy="504.5" r="156"/>
	<path d="M708.5,349c41.54,0,80.58,16.17,109.95,45.54C847.83,423.91,864,462.96,864,504.5c0,41.54-16.17,80.58-45.54,109.95
		C789.09,643.83,750.04,660,708.5,660c-41.54,0-80.58-16.17-109.95-45.54C569.17,585.09,553,546.04,553,504.5
		c0-41.54,16.17-80.58,45.54-109.96C627.91,365.17,666.96,349,708.5,349 M708.5,348L708.5,348C622.07,348,552,418.07,552,504.5v0
		c0,86.43,70.07,156.5,156.5,156.5h0c86.43,0,156.5-70.07,156.5-156.5v0C865,418.07,794.93,348,708.5,348L708.5,348z"/>
</g>
<g>
	<circle class="st0" cx="708.5" cy="504.5" r="113"/>
	<path d="M708.5,392c30.05,0,58.3,11.7,79.55,32.95C809.3,446.2,821,474.45,821,504.5c0,30.05-11.7,58.3-32.95,79.55
		C766.8,605.3,738.55,617,708.5,617c-30.05,0-58.3-11.7-79.55-32.95C607.7,562.8,596,534.55,596,504.5
		c0-30.05,11.7-58.3,32.95-79.55C650.2,403.7,678.45,392,708.5,392 M708.5,391L708.5,391C645.82,391,595,441.82,595,504.5v0
		c0,62.68,50.82,113.5,113.5,113.5h0c62.68,0,113.5-50.82,113.5-113.5v0C822,441.82,771.18,391,708.5,391L708.5,391z"/>
</g>
<g>
	<path d="M952.24,742.99c-6.18,0-12.16-2.25-16.81-6.32L799.39,617.58c-5.13-4.49-8.21-10.72-8.66-17.53s1.77-13.38,6.27-18.52
		c4.85-5.54,11.86-8.72,19.23-8.72c6.18,0,12.16,2.25,16.81,6.32l136.04,119.08c5.13,4.5,8.21,10.72,8.66,17.53
		c0.45,6.81-1.77,13.38-6.27,18.52C966.62,739.81,959.61,742.99,952.24,742.99z"/>
	<path d="M816.22,573.31L816.22,573.31c6.06,0,11.92,2.2,16.48,6.2L968.75,698.6c5.03,4.41,8.05,10.51,8.49,17.18
		c0.44,6.67-1.74,13.12-6.14,18.16c-4.76,5.43-11.63,8.55-18.85,8.55c-6.06,0-11.92-2.2-16.48-6.2L799.72,617.2
		c-5.03-4.41-8.05-10.51-8.49-17.18c-0.44-6.67,1.74-13.12,6.14-18.16C802.12,576.43,809,573.31,816.22,573.31 M816.22,572.31
		c-7.25,0-14.46,3.01-19.61,8.89v0c-9.47,10.82-8.38,27.28,2.44,36.75L935.1,737.04c4.94,4.33,11.06,6.45,17.14,6.45
		c7.25,0,14.46-3.01,19.61-8.89l0,0c9.47-10.82,8.38-27.28-2.44-36.75L833.37,578.76C828.43,574.44,822.31,572.31,816.22,572.31
		L816.22,572.31z"/>
</g>
</svg>
